<svg width="50" height="50" viewBox="0 0 50 50" fill="none" xmlns="http://www.w3.org/2000/svg">
<g id="undraw_profile_pic_re_iwgo 2" clip-path="url(#clip0_62_38)">
<g id="Group">
<path id="Vector" d="M27.9188 36.393L29.1087 28.9559L21.0767 25.6836L19.8867 36.988L27.9188 36.393Z" fill="#A0616A"/>
<path id="Vector_2" d="M35.9912 47.3839C35.3016 47.7201 34.5989 48.0236 33.8857 48.2929C32.4591 48.8327 30.9867 49.2399 29.4761 49.5119C27.9997 49.7784 26.4839 49.9138 24.968 49.9138C22.9202 49.9138 20.8842 49.6681 18.9152 49.1821C18.1442 48.993 17.3666 48.7618 16.6021 48.4925C16.522 48.4636 16.4405 48.4347 16.3604 48.4058C15.412 48.0617 14.4794 47.6584 13.5823 47.2027C13.4614 47.1422 13.3406 47.0804 13.2197 47.0147C13.0858 46.9465 12.9531 46.8743 12.8191 46.7994C12.6483 46.7061 12.4789 46.6089 12.3094 46.5104C11.742 46.182 11.1838 45.8273 10.6505 45.4582L10.615 45.4346C10.5835 45.4123 10.5519 45.3913 10.5217 45.369C10.5414 45.2652 10.5598 45.1705 10.5769 45.0865C10.6426 44.7568 10.6859 44.5756 10.6859 44.5756L14.2824 37.1461L15.2846 35.076L15.7733 34.875L19.4643 33.3579H28.4857L31.3321 34.5348C31.3321 34.5348 31.3466 34.5887 31.3755 34.6925C31.6592 35.7105 33.3143 41.49 35.8822 47.1448C35.9177 47.2236 35.9545 47.3037 35.9912 47.3839Z" fill="#6C63FF"/>
<path id="Vector_3" d="M25.889 31.3466C30.4127 31.3466 34.0798 27.6795 34.0798 23.1559C34.0798 18.6322 30.4127 14.9651 25.889 14.9651C21.3654 14.9651 17.6982 18.6322 17.6982 23.1559C17.6982 27.6795 21.3654 31.3466 25.889 31.3466Z" fill="#A0616A"/>
<path id="Vector_4" d="M15.7876 34.8046L15.7735 34.8751L13.2763 46.7482L13.2547 46.8516L13.2199 47.0151C13.0855 46.9465 12.953 46.8741 12.8196 46.7999C12.6485 46.7059 12.4793 46.6091 12.3092 46.5104C11.7425 46.1824 11.1842 45.8271 10.6504 45.4587L10.6147 45.4343C10.5837 45.4126 10.5517 45.391 10.5216 45.3694C10.1137 45.0846 9.71618 44.7876 9.32802 44.4813C9.3252 44.4794 9.32333 44.4775 9.3205 44.4747C8.62783 43.9164 7.96054 43.3158 7.32238 42.6777C6.91073 42.266 6.51505 41.8422 6.13629 41.407L6.19363 41.1664L6.19927 41.142L6.27069 40.8356C6.90603 38.1523 9.05546 36.0931 11.7632 35.5743L15.3609 34.8854L15.7876 34.8046Z" fill="#6C63FF"/>
<path id="Vector_5" d="M41.2966 43.9121C40.2366 44.8145 39.1004 45.6316 37.9011 46.3488C37.7842 46.4198 37.6647 46.4893 37.5452 46.5589C37.0355 46.8532 36.5167 47.1277 35.9912 47.3839C35.3016 47.7201 34.5989 48.0236 33.8857 48.2928L33.8305 48.0327L31.0103 34.6228L31.3755 34.6925L35.035 35.3939C37.7422 35.9127 39.8925 37.9723 40.5269 40.6558L41.227 43.6205L41.2966 43.9121Z" fill="#6C63FF"/>
<path id="Vector_6" d="M35.3214 25.3453C35.1086 26.1387 34.0381 29.684 31.2967 30.43C30.7582 30.5772 29.4735 30.7466 29.8137 30.43C29.8912 30.3578 29.9661 30.2869 30.041 30.2172C33.0161 27.4194 34.2298 25.7093 33.6755 21.9131C33.3235 19.4961 29.3146 17.3012 27.0592 17.0831C26.1082 16.9913 24.8945 17.313 24.0933 18.1419C22.7705 19.5079 22.9886 23.7008 22.2556 26.1637C22.0586 26.8231 21.7946 27.359 21.4149 27.6834C21.1785 27.8857 21.0275 27.6283 20.9158 27.2066C20.6781 26.3107 20.6163 24.6702 20.2787 25.1338C19.3028 26.4776 20.2328 28.2587 20.5139 28.9458C20.5717 29.0864 20.6308 29.2216 20.6899 29.3503V29.3516C20.724 29.4251 20.7595 29.4988 20.7936 29.5684V29.5697C21.7315 31.4822 22.8585 32.1665 23.8516 33.3579C24.2417 33.8242 24.6108 34.3667 24.9405 35.0918C25.1664 35.5884 25.3293 36.0875 25.441 36.5774C26.0097 39.0337 25.3346 41.2655 25.152 41.8723C24.7697 43.136 24.113 45.3071 22.186 46.5327C19.7664 48.0722 17.5584 46.7154 16.5023 48.1773C16.4892 48.1944 16.4773 48.2114 16.4655 48.2285C16.4261 48.2876 16.3907 48.3468 16.3604 48.4058C15.4121 48.0617 14.4794 47.6584 13.5823 47.2027C13.4615 47.1422 13.3406 47.0804 13.2198 47.0147C13.0858 46.9465 12.9531 46.8743 12.8191 46.7994C12.8139 46.6969 12.8086 46.5945 12.8047 46.4907C12.7272 44.7135 12.8441 42.7602 13.2868 40.8122C13.5705 39.5684 13.8516 38.3349 14.2824 37.1461C14.5635 36.3712 14.9077 35.6145 15.3608 34.8855C15.7234 34.2997 16.1542 33.7309 16.677 33.1845C17.8251 31.9852 18.8457 31.4848 19.0072 30.2185C19.2384 28.4111 17.3561 27.8673 16.677 25.1338C16.2133 23.2647 15.7286 20.5707 16.1989 18.7553C16.6429 17.0399 17.029 15.5516 18.3176 14.0935C18.6276 13.7441 21.172 11.3141 24.1195 10.9147C25.4777 10.7322 26.6888 12.4714 28.3307 12.8457C30.2183 13.2753 31.2993 13.5209 32.3554 14.3287C34.1405 15.6921 34.6436 17.7308 35.1099 19.6249C35.4751 21.1066 35.948 23.023 35.3214 25.3453Z" fill="#2F2E41"/>
</g>
<path id="Vector_7" d="M42.6776 7.32237C37.9558 2.60056 31.6776 0 25 0C18.3224 0 12.0442 2.60056 7.32237 7.32237C2.60056 12.0442 0 18.3224 0 25C0 31.0949 2.16635 36.8571 6.13628 41.407C6.51504 41.8421 6.91072 42.266 7.32237 42.6776C7.96053 43.3158 8.62782 43.9163 9.32049 44.4746C9.32331 44.4774 9.32519 44.4793 9.32801 44.4812C13.7556 48.0573 19.2284 50 25 50C31.6776 50 37.9558 47.3994 42.6776 42.6776C47.3994 37.9558 50 31.6776 50 25C50 18.3224 47.3994 12.0442 42.6776 7.32237ZM41.2538 43.7312C39.6494 45.1269 37.8637 46.3186 35.938 47.2679C35.2622 47.6015 34.5695 47.9051 33.8609 48.1767C31.1081 49.2331 28.1203 49.812 25 49.812C21.9887 49.812 19.1015 49.2726 16.4295 48.2857C15.3327 47.8816 14.2726 47.4013 13.2547 46.8515C13.1053 46.7707 12.9568 46.6889 12.8092 46.6053C12.0329 46.1654 11.282 45.6851 10.5611 45.1664C8.95019 44.0103 7.48308 42.6663 6.19361 41.1664C2.45207 36.8205 0.18797 31.1701 0.18797 25C0.18797 11.3186 11.3186 0.18797 25 0.18797C38.6814 0.18797 49.812 11.3186 49.812 25C49.812 32.4699 46.4944 39.1795 41.2538 43.7312Z" fill="#3F3D56"/>
</g>
<defs>
<clipPath id="clip0_62_38">
<rect width="50" height="50" fill="white"/>
</clipPath>
</defs>
</svg>
