<svg xmlns="http://www.w3.org/2000/svg" xmlns:xlink="http://www.w3.org/1999/xlink" width="1080" zoomAndPan="magnify" viewBox="0 0 810 809.999993" height="1080" preserveAspectRatio="xMidYMid meet" version="1.0"><defs><g/><clipPath id="38556c8ffe"><path d="M 199 400 L 231 400 L 231 410 L 199 410 Z M 199 400 " clip-rule="nonzero"/></clipPath><clipPath id="d9d02e899e"><path d="M 255.394531 369.457031 L 257.265625 408.410156 L 176.359375 412.300781 L 174.488281 373.34375 Z M 255.394531 369.457031 " clip-rule="nonzero"/></clipPath><clipPath id="9dc2645b43"><path d="M 255.394531 369.457031 L 260.46875 475.085938 L 179.5625 478.972656 L 174.488281 373.34375 Z M 255.394531 369.457031 " clip-rule="nonzero"/></clipPath><clipPath id="8787b839d9"><path d="M 193 393 L 238 393 L 238 407 L 193 407 Z M 193 393 " clip-rule="nonzero"/></clipPath><clipPath id="efc6c6a431"><path d="M 255.394531 369.457031 L 257.265625 408.410156 L 176.359375 412.300781 L 174.488281 373.34375 Z M 255.394531 369.457031 " clip-rule="nonzero"/></clipPath><clipPath id="e8da79509a"><path d="M 255.394531 369.457031 L 260.46875 475.085938 L 179.5625 478.972656 L 174.488281 373.34375 Z M 255.394531 369.457031 " clip-rule="nonzero"/></clipPath><clipPath id="63ec8cb5ba"><path d="M 187 386 L 244 386 L 244 403 L 187 403 Z M 187 386 " clip-rule="nonzero"/></clipPath><clipPath id="0b12f44d37"><path d="M 255.394531 369.457031 L 257.265625 408.410156 L 176.359375 412.300781 L 174.488281 373.34375 Z M 255.394531 369.457031 " clip-rule="nonzero"/></clipPath><clipPath id="56075f8c1a"><path d="M 255.394531 369.457031 L 260.46875 475.085938 L 179.5625 478.972656 L 174.488281 373.34375 Z M 255.394531 369.457031 " clip-rule="nonzero"/></clipPath><clipPath id="25076dd4d9"><path d="M 181 379 L 250 379 L 250 399 L 181 399 Z M 181 379 " clip-rule="nonzero"/></clipPath><clipPath id="f30c3b135e"><path d="M 255.394531 369.457031 L 257.265625 408.410156 L 176.359375 412.300781 L 174.488281 373.34375 Z M 255.394531 369.457031 " clip-rule="nonzero"/></clipPath><clipPath id="b175bf3aa9"><path d="M 255.394531 369.457031 L 260.46875 475.085938 L 179.5625 478.972656 L 174.488281 373.34375 Z M 255.394531 369.457031 " clip-rule="nonzero"/></clipPath><clipPath id="f07752f6da"><path d="M 175 372 L 257 372 L 257 397 L 175 397 Z M 175 372 " clip-rule="nonzero"/></clipPath><clipPath id="82fdbbeacd"><path d="M 255.394531 369.457031 L 257.265625 408.410156 L 176.359375 412.300781 L 174.488281 373.34375 Z M 255.394531 369.457031 " clip-rule="nonzero"/></clipPath><clipPath id="c88b154ffd"><path d="M 255.394531 369.457031 L 260.46875 475.085938 L 179.5625 478.972656 L 174.488281 373.34375 Z M 255.394531 369.457031 " clip-rule="nonzero"/></clipPath><clipPath id="5a67d9e917"><path d="M 335.976562 432.753906 L 350.226562 432.753906 L 350.226562 447.003906 L 335.976562 447.003906 Z M 335.976562 432.753906 " clip-rule="nonzero"/></clipPath><clipPath id="da336e3cfd"><path d="M 517.207031 420.398438 L 531.457031 420.398438 L 531.457031 434.648438 L 517.207031 434.648438 Z M 517.207031 420.398438 " clip-rule="nonzero"/></clipPath><clipPath id="8e1b8d11fa"><path d="M 350 321.40625 L 527 321.40625 L 527 382.90625 L 350 382.90625 Z M 350 321.40625 " clip-rule="nonzero"/></clipPath></defs><g clip-path="url(#38556c8ffe)"><g clip-path="url(#d9d02e899e)"><g clip-path="url(#9dc2645b43)"><path fill="#ffbd59" d="M 230.378906 409.734375 C 225.941406 405.703125 220.648438 403.335938 215.121094 403.199219 C 212.367188 403.085938 209.609375 403.539062 206.964844 404.453125 C 204.324219 405.398438 201.832031 406.839844 199.457031 408.695312 C 200.941406 406.0625 203.304688 403.886719 206.078125 402.441406 C 208.855469 400.972656 212.050781 400.300781 215.210938 400.386719 C 218.375 400.496094 221.519531 401.414062 224.179688 403.0625 C 226.847656 404.6875 229.066406 407.011719 230.378906 409.734375 " fill-opacity="1" fill-rule="nonzero"/></g></g></g><g clip-path="url(#8787b839d9)"><g clip-path="url(#efc6c6a431)"><g clip-path="url(#e8da79509a)"><path fill="#ffbd59" d="M 237.136719 406.527344 C 231.761719 400.066406 224.109375 395.960938 216.042969 395.570312 C 207.980469 395.03125 199.890625 398.152344 193.804688 403.960938 C 196.199219 400.503906 199.566406 397.601562 203.496094 395.785156 C 207.410156 393.929688 211.820312 393.097656 216.171875 393.355469 C 220.515625 393.625 224.816406 394.941406 228.464844 397.273438 C 232.140625 399.558594 235.160156 402.804688 237.136719 406.527344 " fill-opacity="1" fill-rule="nonzero"/></g></g></g><g clip-path="url(#63ec8cb5ba)"><g clip-path="url(#0b12f44d37)"><g clip-path="url(#56075f8c1a)"><path fill="#ffbd59" d="M 243.566406 402.886719 C 240.320312 398.496094 236.214844 394.824219 231.519531 392.242188 C 226.839844 389.648438 221.59375 388.085938 216.261719 387.902344 C 210.9375 387.550781 205.558594 388.554688 200.625 390.617188 C 195.679688 392.6875 191.230469 395.9375 187.546875 399.960938 C 190.714844 395.503906 195.097656 391.863281 200.113281 389.476562 C 205.136719 387.097656 210.777344 386.042969 216.34375 386.289062 C 221.90625 386.613281 227.417969 388.242188 232.144531 391.171875 C 236.875 394.070312 240.878906 398.121094 243.566406 402.886719 " fill-opacity="1" fill-rule="nonzero"/></g></g></g><g clip-path="url(#25076dd4d9)"><g clip-path="url(#f30c3b135e)"><g clip-path="url(#b175bf3aa9)"><path fill="#ffbd59" d="M 249.765625 398.898438 C 245.976562 393.390625 240.933594 388.8125 235.167969 385.574219 C 229.398438 382.34375 222.882812 380.417969 216.277344 380.226562 C 209.679688 379.898438 203.023438 381.203125 196.984375 383.914062 C 190.964844 386.65625 185.558594 390.800781 181.3125 395.960938 C 185.261719 390.566406 190.566406 386.125 196.652344 383.203125 C 202.742188 380.285156 209.570312 378.953125 216.320312 379.207031 C 223.074219 379.488281 229.757812 381.453125 235.554688 384.898438 C 241.371094 388.316406 246.292969 393.183594 249.765625 398.898438 " fill-opacity="1" fill-rule="nonzero"/></g></g></g><g clip-path="url(#f07752f6da)"><g clip-path="url(#82fdbbeacd)"><g clip-path="url(#c88b154ffd)"><path fill="#ffbd59" d="M 256.671875 396.035156 C 252.4375 389.253906 246.582031 383.523438 239.746094 379.429688 C 232.917969 375.316406 225.058594 372.945312 217.109375 372.59375 C 209.164062 372.128906 201.109375 373.648438 193.859375 376.960938 C 186.621094 380.304688 180.21875 385.417969 175.285156 391.703125 C 180.089844 385.3125 186.464844 380.082031 193.742188 376.707031 C 201.011719 373.332031 209.113281 371.75 217.128906 372.171875 C 225.148438 372.574219 233.046875 375.015625 239.890625 379.1875 C 246.761719 383.320312 252.574219 389.164062 256.671875 396.035156 " fill-opacity="1" fill-rule="nonzero"/></g></g></g><g fill="#004aad" fill-opacity="1"><g transform="translate(81.046508, 459.836516)"><g><path d="M 9.828125 -81.109375 L 38.84375 -9.9375 L 67.734375 -81.109375 L 76.078125 -81.109375 L 42.5 0 L 35.1875 0 L 1.484375 -81.109375 Z M 9.828125 -81.109375 "/></g></g></g><g fill="#004aad" fill-opacity="1"><g transform="translate(158.604888, 459.836516)"><g><path d="M 8.5625 0 L 8.5625 -59.515625 L 16.328125 -59.515625 L 16.328125 0 Z M 8.5625 -71.96875 L 8.5625 -83.390625 L 16.328125 -83.390625 L 16.328125 -71.96875 Z M 8.5625 -71.96875 "/></g></g></g><g fill="#004aad" fill-opacity="1"><g transform="translate(183.505805, 459.836516)"><g><path d="M 28.109375 1.140625 C 23.234375 1.140625 18.695312 0.34375 14.5 -1.25 C 10.3125 -2.851562 6.695312 -5.289062 3.65625 -8.5625 L 6.859375 -14.046875 C 10.203125 -10.929688 13.566406 -8.664062 16.953125 -7.25 C 20.347656 -5.84375 23.953125 -5.140625 27.765625 -5.140625 C 32.410156 -5.140625 36.175781 -6.070312 39.0625 -7.9375 C 41.957031 -9.800781 43.40625 -12.488281 43.40625 -16 C 43.40625 -18.351562 42.703125 -20.15625 41.296875 -21.40625 C 39.890625 -22.664062 37.867188 -23.695312 35.234375 -24.5 C 32.609375 -25.300781 29.46875 -26.160156 25.8125 -27.078125 C 21.695312 -28.210938 18.25 -29.410156 15.46875 -30.671875 C 12.695312 -31.929688 10.601562 -33.53125 9.1875 -35.46875 C 7.78125 -37.40625 7.078125 -39.9375 7.078125 -43.0625 C 7.078125 -46.945312 8.046875 -50.164062 9.984375 -52.71875 C 11.929688 -55.269531 14.597656 -57.210938 17.984375 -58.546875 C 21.378906 -59.878906 25.171875 -60.546875 29.359375 -60.546875 C 33.929688 -60.546875 37.96875 -59.820312 41.46875 -58.375 C 44.96875 -56.925781 47.820312 -54.90625 50.03125 -52.3125 L 46.265625 -47.0625 C 44.128906 -49.5 41.59375 -51.304688 38.65625 -52.484375 C 35.726562 -53.671875 32.476562 -54.265625 28.90625 -54.265625 C 26.46875 -54.265625 24.144531 -53.9375 21.9375 -53.28125 C 19.726562 -52.632812 17.914062 -51.566406 16.5 -50.078125 C 15.09375 -48.597656 14.390625 -46.566406 14.390625 -43.984375 C 14.390625 -41.847656 14.921875 -40.1875 15.984375 -39 C 17.054688 -37.820312 18.65625 -36.832031 20.78125 -36.03125 C 22.914062 -35.238281 25.546875 -34.382812 28.671875 -33.46875 C 33.160156 -32.25 37.082031 -31.007812 40.4375 -29.75 C 43.789062 -28.5 46.378906 -26.882812 48.203125 -24.90625 C 50.035156 -22.925781 50.953125 -20.144531 50.953125 -16.5625 C 50.953125 -11 48.851562 -6.65625 44.65625 -3.53125 C 40.46875 -0.414062 34.953125 1.140625 28.109375 1.140625 Z M 28.109375 1.140625 "/></g></g></g><g fill="#004aad" fill-opacity="1"><g transform="translate(238.676192, 459.836516)"><g><path d="M 8 -24.5625 L 8 -59.515625 L 15.765625 -59.515625 L 15.765625 -25.9375 C 15.765625 -19.15625 16.925781 -14.085938 19.25 -10.734375 C 21.570312 -7.390625 25.019531 -5.71875 29.59375 -5.71875 C 32.632812 -5.71875 35.582031 -6.378906 38.4375 -7.703125 C 41.289062 -9.035156 43.820312 -10.941406 46.03125 -13.421875 C 48.238281 -15.898438 49.914062 -18.773438 51.0625 -22.046875 L 51.0625 -59.515625 L 58.828125 -59.515625 L 58.828125 -9.375 C 58.828125 -8.300781 59.054688 -7.515625 59.515625 -7.015625 C 59.972656 -6.523438 60.660156 -6.242188 61.578125 -6.171875 L 61.578125 0 C 60.660156 0.0703125 59.9375 0.128906 59.40625 0.171875 C 58.875 0.210938 58.378906 0.234375 57.921875 0.234375 C 56.390625 0.078125 55.070312 -0.53125 53.96875 -1.59375 C 52.863281 -2.664062 52.273438 -3.960938 52.203125 -5.484375 L 51.984375 -13.484375 C 49.390625 -8.910156 45.863281 -5.328125 41.40625 -2.734375 C 36.957031 -0.148438 32.140625 1.140625 26.953125 1.140625 C 20.710938 1.140625 15.992188 -1.023438 12.796875 -5.359375 C 9.597656 -9.703125 8 -16.101562 8 -24.5625 Z M 8 -24.5625 "/></g></g></g><g fill="#004aad" fill-opacity="1"><g transform="translate(306.52549, 459.836516)"><g><path d="M 3.765625 -17.140625 C 3.765625 -20.867188 4.832031 -24.082031 6.96875 -26.78125 C 9.101562 -29.488281 12.050781 -31.582031 15.8125 -33.0625 C 19.582031 -34.550781 23.945312 -35.296875 28.90625 -35.296875 C 31.800781 -35.296875 34.804688 -35.066406 37.921875 -34.609375 C 41.046875 -34.148438 43.828125 -33.46875 46.265625 -32.5625 L 46.265625 -37.578125 C 46.265625 -42.609375 44.78125 -46.609375 41.8125 -49.578125 C 38.84375 -52.546875 34.726562 -54.03125 29.46875 -54.03125 C 26.269531 -54.03125 23.128906 -53.4375 20.046875 -52.25 C 16.960938 -51.070312 13.742188 -49.34375 10.390625 -47.0625 L 7.421875 -52.546875 C 11.304688 -55.210938 15.113281 -57.210938 18.84375 -58.546875 C 22.582031 -59.878906 26.390625 -60.546875 30.265625 -60.546875 C 37.578125 -60.546875 43.363281 -58.453125 47.625 -54.265625 C 51.894531 -50.078125 54.03125 -44.285156 54.03125 -36.890625 L 54.03125 -9.375 C 54.03125 -8.300781 54.257812 -7.515625 54.71875 -7.015625 C 55.175781 -6.523438 55.898438 -6.242188 56.890625 -6.171875 L 56.890625 0 C 56.046875 0.0703125 55.316406 0.144531 54.703125 0.21875 C 54.097656 0.300781 53.644531 0.304688 53.34375 0.234375 C 51.4375 0.148438 49.988281 -0.457031 49 -1.59375 C 48.007812 -2.738281 47.476562 -3.957031 47.40625 -5.25 L 47.296875 -9.59375 C 44.628906 -6.164062 41.160156 -3.519531 36.890625 -1.65625 C 32.628906 0.207031 28.289062 1.140625 23.875 1.140625 C 20.0625 1.140625 16.613281 0.320312 13.53125 -1.3125 C 10.445312 -2.945312 8.046875 -5.15625 6.328125 -7.9375 C 4.617188 -10.71875 3.765625 -13.785156 3.765625 -17.140625 Z M 43.640625 -12.5625 C 44.472656 -13.632812 45.117188 -14.664062 45.578125 -15.65625 C 46.035156 -16.644531 46.265625 -17.519531 46.265625 -18.28125 L 46.265625 -26.953125 C 43.671875 -27.941406 40.984375 -28.703125 38.203125 -29.234375 C 35.429688 -29.773438 32.632812 -30.046875 29.8125 -30.046875 C 24.25 -30.046875 19.753906 -28.941406 16.328125 -26.734375 C 12.898438 -24.523438 11.1875 -21.515625 11.1875 -17.703125 C 11.1875 -15.492188 11.757812 -13.414062 12.90625 -11.46875 C 14.050781 -9.53125 15.726562 -7.929688 17.9375 -6.671875 C 20.144531 -5.421875 22.734375 -4.796875 25.703125 -4.796875 C 29.429688 -4.796875 32.914062 -5.519531 36.15625 -6.96875 C 39.394531 -8.414062 41.890625 -10.28125 43.640625 -12.5625 Z M 43.640625 -12.5625 "/></g></g></g><g fill="#004aad" fill-opacity="1"><g transform="translate(368.777785, 459.836516)"><g><path d="M 8.90625 -83.390625 L 16.671875 -83.390625 L 16.671875 -13.484375 C 16.671875 -10.515625 17.203125 -8.570312 18.265625 -7.65625 C 19.335938 -6.738281 20.632812 -6.28125 22.15625 -6.28125 C 23.53125 -6.28125 24.898438 -6.429688 26.265625 -6.734375 C 27.640625 -7.046875 28.820312 -7.351562 29.8125 -7.65625 L 31.1875 -1.375 C 29.738281 -0.757812 27.96875 -0.265625 25.875 0.109375 C 23.78125 0.492188 21.972656 0.6875 20.453125 0.6875 C 16.941406 0.6875 14.140625 -0.335938 12.046875 -2.390625 C 9.953125 -4.453125 8.90625 -7.273438 8.90625 -10.859375 Z M 8.90625 -83.390625 "/></g></g></g><g fill="#004aad" fill-opacity="1"><g transform="translate(399.860808, 459.836516)"><g><path d="M 76.65625 -81.109375 L 76.65625 0 L 61 0 L 61 -34.609375 L 24.21875 -34.609375 L 24.21875 0 L 8.453125 0 L 8.453125 -81.109375 L 24.21875 -81.109375 L 24.21875 -48.328125 L 61 -48.328125 L 61 -81.109375 Z M 76.65625 -81.109375 "/></g></g></g><g fill="#004aad" fill-opacity="1"><g transform="translate(484.958004, 459.836516)"><g><path d="M 34.609375 1.140625 C 29.734375 1.140625 25.351562 0.320312 21.46875 -1.3125 C 17.59375 -2.945312 14.300781 -5.210938 11.59375 -8.109375 C 8.894531 -11.003906 6.820312 -14.316406 5.375 -18.046875 C 3.925781 -21.773438 3.203125 -25.695312 3.203125 -29.8125 C 3.203125 -34 3.925781 -37.957031 5.375 -41.6875 C 6.820312 -45.425781 8.894531 -48.738281 11.59375 -51.625 C 14.300781 -54.519531 17.59375 -56.785156 21.46875 -58.421875 C 25.351562 -60.066406 29.734375 -60.890625 34.609375 -60.890625 C 39.484375 -60.890625 43.84375 -60.066406 47.6875 -58.421875 C 51.539062 -56.785156 54.835938 -54.519531 57.578125 -51.625 C 60.316406 -48.738281 62.390625 -45.425781 63.796875 -41.6875 C 65.203125 -37.957031 65.90625 -34 65.90625 -29.8125 C 65.90625 -25.695312 65.203125 -21.773438 63.796875 -18.046875 C 62.390625 -14.316406 60.332031 -11.003906 57.625 -8.109375 C 54.925781 -5.210938 51.632812 -2.945312 47.75 -1.3125 C 43.863281 0.320312 39.484375 1.140625 34.609375 1.140625 Z M 18.96875 -29.8125 C 18.96875 -26.3125 19.648438 -23.207031 21.015625 -20.5 C 22.390625 -17.800781 24.253906 -15.6875 26.609375 -14.15625 C 28.972656 -12.632812 31.640625 -11.875 34.609375 -11.875 C 37.503906 -11.875 40.128906 -12.65625 42.484375 -14.21875 C 44.847656 -15.78125 46.734375 -17.910156 48.140625 -20.609375 C 49.554688 -23.316406 50.265625 -26.421875 50.265625 -29.921875 C 50.265625 -33.347656 49.554688 -36.429688 48.140625 -39.171875 C 46.734375 -41.921875 44.847656 -44.054688 42.484375 -45.578125 C 40.128906 -47.097656 37.503906 -47.859375 34.609375 -47.859375 C 31.640625 -47.859375 28.972656 -47.078125 26.609375 -45.515625 C 24.253906 -43.960938 22.390625 -41.832031 21.015625 -39.125 C 19.648438 -36.414062 18.96875 -33.3125 18.96875 -29.8125 Z M 18.96875 -29.8125 "/></g></g></g><g fill="#004aad" fill-opacity="1"><g transform="translate(554.178003, 459.836516)"><g><path d="M 99.953125 0 L 84.640625 0 L 84.640625 -33.578125 C 84.640625 -38.304688 83.820312 -41.789062 82.1875 -44.03125 C 80.550781 -46.28125 78.285156 -47.40625 75.390625 -47.40625 C 72.421875 -47.40625 69.582031 -46.242188 66.875 -43.921875 C 64.175781 -41.597656 62.253906 -38.570312 61.109375 -34.84375 L 61.109375 0 L 45.8125 0 L 45.8125 -33.578125 C 45.8125 -38.378906 44.988281 -41.882812 43.34375 -44.09375 C 41.707031 -46.300781 39.445312 -47.40625 36.5625 -47.40625 C 33.582031 -47.40625 30.738281 -46.257812 28.03125 -43.96875 C 25.332031 -41.6875 23.414062 -38.679688 22.28125 -34.953125 L 22.28125 0 L 6.96875 0 L 6.96875 -59.859375 L 20.796875 -59.859375 L 20.796875 -48.78125 C 23.078125 -52.664062 26.117188 -55.65625 29.921875 -57.75 C 33.734375 -59.84375 38.113281 -60.890625 43.0625 -60.890625 C 48.007812 -60.890625 51.875 -59.671875 54.65625 -57.234375 C 57.4375 -54.796875 59.207031 -51.785156 59.96875 -48.203125 C 62.40625 -52.316406 65.507812 -55.457031 69.28125 -57.625 C 73.050781 -59.800781 77.296875 -60.890625 82.015625 -60.890625 C 85.753906 -60.890625 88.785156 -60.222656 91.109375 -58.890625 C 93.429688 -57.554688 95.238281 -55.765625 96.53125 -53.515625 C 97.820312 -51.273438 98.710938 -48.742188 99.203125 -45.921875 C 99.703125 -43.109375 99.953125 -40.253906 99.953125 -37.359375 Z M 99.953125 0 "/></g></g></g><g fill="#004aad" fill-opacity="1"><g transform="translate(660.520925, 459.836516)"><g><path d="M 34.734375 1.140625 C 29.929688 1.140625 25.585938 0.320312 21.703125 -1.3125 C 17.816406 -2.945312 14.503906 -5.191406 11.765625 -8.046875 C 9.023438 -10.910156 6.910156 -14.1875 5.421875 -17.875 C 3.941406 -21.570312 3.203125 -25.476562 3.203125 -29.59375 C 3.203125 -35.300781 4.476562 -40.515625 7.03125 -45.234375 C 9.582031 -49.953125 13.234375 -53.738281 17.984375 -56.59375 C 22.742188 -59.457031 28.363281 -60.890625 34.84375 -60.890625 C 41.394531 -60.890625 46.992188 -59.457031 51.640625 -56.59375 C 56.285156 -53.738281 59.84375 -49.96875 62.3125 -45.28125 C 64.789062 -40.601562 66.03125 -35.5625 66.03125 -30.15625 C 66.03125 -29.238281 65.988281 -28.304688 65.90625 -27.359375 C 65.832031 -26.410156 65.757812 -25.628906 65.6875 -25.015625 L 19.421875 -25.015625 C 19.722656 -21.972656 20.613281 -19.304688 22.09375 -17.015625 C 23.582031 -14.734375 25.488281 -13 27.8125 -11.8125 C 30.132812 -10.632812 32.628906 -10.046875 35.296875 -10.046875 C 38.347656 -10.046875 41.222656 -10.785156 43.921875 -12.265625 C 46.628906 -13.753906 48.476562 -15.71875 49.46875 -18.15625 L 62.59375 -14.5 C 61.15625 -11.457031 59.082031 -8.753906 56.375 -6.390625 C 53.664062 -4.035156 50.484375 -2.191406 46.828125 -0.859375 C 43.179688 0.472656 39.148438 1.140625 34.734375 1.140625 Z M 19.078125 -34.734375 L 50.375 -34.734375 C 50.070312 -37.773438 49.210938 -40.414062 47.796875 -42.65625 C 46.390625 -44.90625 44.546875 -46.660156 42.265625 -47.921875 C 39.984375 -49.179688 37.429688 -49.8125 34.609375 -49.8125 C 31.867188 -49.8125 29.375 -49.179688 27.125 -47.921875 C 24.882812 -46.660156 23.054688 -44.90625 21.640625 -42.65625 C 20.234375 -40.414062 19.378906 -37.773438 19.078125 -34.734375 Z M 19.078125 -34.734375 "/></g></g></g><g clip-path="url(#5a67d9e917)"><path fill="#ffbd59" d="M 350.542969 440.039062 C 350.542969 440.515625 350.496094 440.992188 350.402344 441.460938 C 350.308594 441.929688 350.171875 442.382812 349.988281 442.824219 C 349.804688 443.269531 349.582031 443.6875 349.316406 444.085938 C 349.050781 444.484375 348.746094 444.851562 348.410156 445.1875 C 348.070312 445.527344 347.703125 445.828125 347.304688 446.09375 C 346.90625 446.359375 346.488281 446.585938 346.046875 446.769531 C 345.605469 446.953125 345.148438 447.089844 344.679688 447.183594 C 344.210938 447.277344 343.738281 447.324219 343.257812 447.324219 C 342.78125 447.324219 342.304688 447.277344 341.835938 447.183594 C 341.367188 447.089844 340.914062 446.953125 340.472656 446.769531 C 340.027344 446.585938 339.609375 446.359375 339.210938 446.09375 C 338.8125 445.828125 338.445312 445.527344 338.109375 445.1875 C 337.769531 444.851562 337.46875 444.484375 337.203125 444.085938 C 336.9375 443.6875 336.710938 443.269531 336.527344 442.824219 C 336.347656 442.382812 336.207031 441.929688 336.113281 441.460938 C 336.019531 440.992188 335.972656 440.515625 335.972656 440.039062 C 335.972656 439.558594 336.019531 439.085938 336.113281 438.617188 C 336.207031 438.148438 336.347656 437.691406 336.527344 437.25 C 336.710938 436.808594 336.9375 436.390625 337.203125 435.992188 C 337.46875 435.59375 337.769531 435.226562 338.109375 434.886719 C 338.445312 434.550781 338.8125 434.246094 339.210938 433.980469 C 339.609375 433.714844 340.027344 433.492188 340.472656 433.308594 C 340.914062 433.125 341.367188 432.988281 341.835938 432.894531 C 342.304688 432.800781 342.78125 432.753906 343.257812 432.753906 C 343.738281 432.753906 344.210938 432.800781 344.679688 432.894531 C 345.148438 432.988281 345.605469 433.125 346.046875 433.308594 C 346.488281 433.492188 346.90625 433.714844 347.304688 433.980469 C 347.703125 434.246094 348.070312 434.550781 348.410156 434.886719 C 348.746094 435.226562 349.050781 435.59375 349.316406 435.992188 C 349.582031 436.390625 349.804688 436.808594 349.988281 437.25 C 350.171875 437.691406 350.308594 438.148438 350.402344 438.617188 C 350.496094 439.085938 350.542969 439.558594 350.542969 440.039062 Z M 350.542969 440.039062 " fill-opacity="1" fill-rule="nonzero"/></g><g clip-path="url(#da336e3cfd)"><path fill="#ffbd59" d="M 531.777344 427.679688 C 531.777344 428.160156 531.730469 428.632812 531.636719 429.101562 C 531.542969 429.570312 531.40625 430.027344 531.222656 430.46875 C 531.039062 430.910156 530.8125 431.332031 530.546875 431.726562 C 530.28125 432.125 529.980469 432.492188 529.644531 432.832031 C 529.304688 433.171875 528.9375 433.472656 528.539062 433.738281 C 528.140625 434.003906 527.722656 434.226562 527.28125 434.410156 C 526.835938 434.59375 526.382812 434.734375 525.914062 434.824219 C 525.445312 434.917969 524.96875 434.964844 524.492188 434.964844 C 524.015625 434.964844 523.539062 434.917969 523.070312 434.824219 C 522.601562 434.734375 522.148438 434.59375 521.703125 434.410156 C 521.261719 434.226562 520.84375 434.003906 520.445312 433.738281 C 520.046875 433.472656 519.679688 433.171875 519.339844 432.832031 C 519.003906 432.492188 518.703125 432.125 518.4375 431.726562 C 518.167969 431.332031 517.945312 430.910156 517.761719 430.46875 C 517.578125 430.027344 517.441406 429.570312 517.347656 429.101562 C 517.253906 428.632812 517.207031 428.160156 517.207031 427.679688 C 517.207031 427.203125 517.253906 426.730469 517.347656 426.261719 C 517.441406 425.792969 517.578125 425.335938 517.761719 424.894531 C 517.945312 424.453125 518.167969 424.03125 518.4375 423.632812 C 518.703125 423.238281 519.003906 422.867188 519.339844 422.53125 C 519.679688 422.191406 520.046875 421.890625 520.445312 421.625 C 520.84375 421.359375 521.261719 421.136719 521.703125 420.953125 C 522.148438 420.769531 522.601562 420.628906 523.070312 420.539062 C 523.539062 420.445312 524.015625 420.398438 524.492188 420.398438 C 524.96875 420.398438 525.445312 420.445312 525.914062 420.539062 C 526.382812 420.628906 526.835938 420.769531 527.28125 420.953125 C 527.722656 421.136719 528.140625 421.359375 528.539062 421.625 C 528.9375 421.890625 529.304688 422.191406 529.644531 422.53125 C 529.980469 422.867188 530.28125 423.238281 530.546875 423.632812 C 530.8125 424.03125 531.039062 424.453125 531.222656 424.894531 C 531.40625 425.335938 531.542969 425.792969 531.636719 426.261719 C 531.730469 426.730469 531.777344 427.203125 531.777344 427.679688 Z M 531.777344 427.679688 " fill-opacity="1" fill-rule="nonzero"/></g><g clip-path="url(#8e1b8d11fa)"><path fill="#ffbd59" d="M 438.402344 321.457031 L 438.371094 321.511719 L 438.335938 321.457031 L 387.347656 351.527344 L 387.347656 339.542969 L 370.984375 339.542969 L 370.984375 361.140625 L 371.042969 361.140625 L 350.015625 373.539062 L 355.554688 382.9375 L 438.371094 334.101562 L 521.183594 382.9375 L 526.726562 373.539062 Z M 438.402344 321.457031 " fill-opacity="1" fill-rule="nonzero"/></g></svg>